<?xml version="1.0" standalone="no"?>
<!DOCTYPE svg PUBLIC "-//W3C//DTD SVG 20010904//EN"
 "http://www.w3.org/TR/2001/REC-SVG-20010904/DTD/svg10.dtd">
<svg version="1.0" xmlns="http://www.w3.org/2000/svg"
 width="420.000000pt" height="420.000000pt" viewBox="0 0 420.000000 420.000000"
 preserveAspectRatio="xMidYMid meet">

<g transform="translate(0.000000,420.000000) scale(0.100000,-0.100000)"
fill="#000000" stroke="none">
<path d="M1650 3399 c-160 -42 -298 -127 -451 -279 -192 -190 -282 -359 -364
-687 -33 -135 -83 -270 -154 -423 -32 -69 -71 -163 -87 -210 -26 -78 -28 -97
-28 -235 0 -144 1 -154 33 -245 52 -149 115 -274 163 -327 25 -26 62 -76 82
-111 21 -35 40 -62 41 -60 2 2 -3 135 -12 296 -8 160 -12 303 -9 317 11 45 39
53 206 59 85 3 163 6 173 6 15 0 16 8 11 73 l-7 72 30 -40 c58 -76 97 -106
144 -110 l44 -4 -35 18 c-19 11 -38 17 -43 14 -4 -2 -6 -1 -5 4 2 5 -14 26
-34 47 -77 79 -109 199 -84 314 10 48 59 133 95 165 128 115 323 119 447 9 44
-38 92 -117 110 -180 13 -44 14 -65 4 -119 -19 -112 -70 -188 -167 -250 l-38
-24 40 5 c32 4 50 16 85 54 81 86 87 98 120 230 20 78 121 121 201 84 53 -23
75 -47 83 -87 17 -97 44 -155 100 -213 46 -49 84 -72 117 -72 19 0 14 5 -22
29 -92 60 -137 130 -158 248 -16 86 3 165 50 217 11 11 19 23 19 26 0 20 86
89 135 108 170 67 356 -7 430 -172 57 -128 33 -273 -61 -371 -22 -21 -38 -43
-36 -48 1 -5 -1 -6 -5 -4 -5 3 -23 -3 -42 -13 l-35 -18 30 0 c16 0 40 6 54 13
31 17 92 81 114 120 17 30 17 29 12 -47 l-6 -78 44 0 c43 0 45 1 48 33 3 27 5
29 12 12 19 -50 19 -50 135 -55 167 -7 161 9 140 -356 -6 -107 -9 -200 -7
-206 7 -19 143 124 196 205 71 109 87 167 86 312 0 97 -6 140 -28 225 -33 127
-99 298 -172 440 -29 58 -87 204 -129 325 -153 444 -306 679 -539 833 -201
132 -364 158 -539 87 -76 -31 -99 -31 -145 0 -93 64 -250 82 -392 44z m556
-620 c37 -11 90 -31 118 -43 28 -12 71 -31 96 -40 62 -25 78 -32 132 -55 26
-12 52 -21 57 -21 6 0 11 -3 11 -8 0 -4 12 -13 28 -20 58 -26 177 -163 223
-255 62 -126 94 -251 83 -322 l-6 -46 -18 28 c-21 35 -108 123 -121 123 -6 0
-7 4 -4 10 3 5 -13 30 -36 55 -62 68 -88 72 -261 46 -171 -26 -188 -32 -188
-65 0 -28 25 -46 62 -46 20 0 16 -6 -29 -52 -49 -50 -103 -144 -103 -180 0
-28 -16 -30 -62 -6 -62 33 -132 31 -186 -5 -30 -20 -44 -24 -47 -15 -2 7 -9
33 -15 58 -14 53 -54 113 -109 163 l-41 37 29 0 c55 0 84 61 39 80 -13 5 -87
19 -166 31 -115 17 -151 20 -180 11 -39 -12 -112 -78 -116 -106 -1 -8 -19 -28
-39 -43 -20 -16 -53 -50 -72 -77 -34 -48 -35 -49 -35 -20 1 71 62 273 108 354
77 135 162 217 287 279 46 23 88 41 94 41 6 0 19 4 29 9 9 5 33 13 52 19 154
46 209 65 235 82 38 25 67 25 151 -1z m-88 -886 c-10 -2 -26 -2 -35 0 -10 3
-2 5 17 5 19 0 27 -2 18 -5z"/>
<path d="M1620 2039 c-107 -12 -207 -87 -225 -169 -12 -54 7 -52 32 2 33 71
56 94 120 118 135 50 260 3 322 -121 32 -64 42 -54 21 20 -32 113 -129 166
-270 150z"/>
<path d="M2404 2014 c-63 -41 -105 -116 -103 -184 0 -22 2 -20 14 12 7 20 21
48 31 63 22 33 92 82 130 90 26 6 25 4 -12 -19 -127 -79 -82 -272 65 -282 41
-3 44 -2 27 11 -18 13 -15 35 6 35 5 0 23 9 39 21 31 22 54 17 44 -10 -4 -12
0 -11 15 5 23 23 36 87 26 128 -14 56 -68 100 -146 116 -32 7 -30 8 21 9 99 2
190 -61 223 -156 15 -45 31 -28 22 22 -10 49 -88 125 -151 148 -32 11 -79 17
-130 17 -70 0 -86 -4 -121 -26z m96 -89 c26 -31 -18 -71 -47 -43 -12 12 -13
20 -4 37 14 25 34 27 51 6z"/>
<path d="M1608 1987 c-122 -55 -131 -198 -18 -275 28 -19 44 -23 83 -19 27 2
53 9 58 14 6 6 -1 8 -21 5 -36 -5 -37 0 -8 28 27 24 55 26 60 3 2 -13 7 -11
23 13 14 21 20 46 20 89 0 72 -20 105 -81 135 -45 22 -76 24 -116 7z m26 -69
c15 -24 -13 -53 -43 -43 -23 7 -28 34 -9 53 16 16 38 12 52 -10z"/>
<path d="M3286 488 c-3 -51 -8 -154 -11 -228 -8 -185 -8 -185 -60 -210 l-44
-21 -1083 6 c-1146 7 -1094 5 -1144 53 -20 19 -22 35 -28 218 -4 109 -10 202
-13 206 -7 13 -26 -13 -69 -97 -65 -125 -105 -238 -138 -387 l-6 -28 1389 0
1389 0 -20 92 c-23 106 -76 256 -121 341 l-30 57 21 23 c22 24 30 57 13 57 -5
0 -16 3 -24 6 -12 4 -16 -12 -21 -88z"/>
</g>
</svg>
